# Blender v2.90.1 OBJ File: ''
# www.blender.org
mtllib fondoJourney.mtl
o Cylinder
v 1.000000 -0.935694 -0.000000
v 1.000000 1.064306 -0.000000
v 0.980785 -0.935694 0.195090
v 0.980785 1.064306 0.195090
v 0.923880 -0.935694 0.382683
v 0.923880 1.064306 0.382683
v 0.831470 -0.935694 0.555570
v 0.831470 1.064306 0.555570
v 0.707107 -0.935694 0.707107
v 0.707107 1.064306 0.707107
v 0.555570 -0.935694 0.831470
v 0.555570 1.064306 0.831470
v 0.382683 -0.935694 0.923880
v 0.382683 1.064306 0.923880
v 0.195090 -0.935694 0.980785
v 0.195090 1.064306 0.980785
v -0.000000 -0.935694 1.000000
v -0.000000 1.064306 1.000000
vt 0.000192 0.999752
vt 0.000197 0.000247
vt 0.124512 0.000247
vt 0.124508 0.999752
vt 0.248827 0.000247
vt 0.248823 0.999752
vt 0.373142 0.000247
vt 0.373139 0.999753
vt 0.497468 0.000247
vt 0.497444 0.999753
vt 0.621772 0.000248
vt 0.621770 0.999753
vt 0.746087 0.000248
vt 0.746086 0.999753
vt 0.870402 0.000248
vt 0.870401 0.999753
vt 0.994718 0.000248
vt 0.994717 0.999753
vn 0.9952 0.0000 0.0980
vn 0.9569 0.0000 0.2903
vn 0.8819 0.0000 0.4714
vn 0.7730 0.0000 0.6344
vn 0.6344 0.0000 0.7730
vn 0.4714 0.0000 0.8819
vn 0.2903 0.0000 0.9569
vn 0.0980 0.0000 0.9952
usemtl Material.001
s off
f 1/1/1 2/2/1 4/3/1 3/4/1
f 3/4/2 4/3/2 6/5/2 5/6/2
f 5/6/3 6/5/3 8/7/3 7/8/3
f 7/8/4 8/7/4 10/9/4 9/10/4
f 9/10/5 10/9/5 12/11/5 11/12/5
f 11/12/6 12/11/6 14/13/6 13/14/6
f 13/14/7 14/13/7 16/15/7 15/16/7
f 15/16/8 16/15/8 18/17/8 17/18/8
