# Blender v2.90.1 OBJ File: ''
# www.blender.org
mtllib ghost.mtl
o Ghost_Plane
v -0.103601 -0.001229 0.060111
v -0.065323 0.002534 0.060111
v -0.025326 0.018618 0.060111
v -0.081665 0.038730 0.060083
v 0.013531 0.028406 0.060112
v -0.072864 0.083436 0.060112
v 0.118505 0.112010 0.060112
v -0.077015 0.142474 0.060112
v -0.123629 0.224297 0.060112
v 0.188030 0.198783 0.060112
v -0.178178 0.304136 0.060112
v 0.244586 0.331604 0.060111
v -0.213882 0.412440 0.060111
v 0.264295 0.446430 0.060111
v -0.231140 0.506462 0.060112
v 0.301785 0.528550 0.060112
v 0.446151 0.745668 0.060112
v 0.403794 0.769774 0.060111
v 0.457860 0.669561 0.060111
v 0.463714 0.712608 0.060112
v -0.427688 0.700072 0.060112
v -0.417356 0.661502 0.060112
v -0.374999 0.758615 0.060112
v -0.415635 0.738641 0.060112
v -0.377409 0.618455 0.060112
v -0.318177 0.749661 0.060112
v -0.317426 0.585607 0.060112
v -0.278230 0.738297 0.060111
v 0.362469 0.767363 0.060112
v 0.404138 0.617217 0.060112
v 0.312879 0.751866 0.060112
v 0.349986 0.580917 0.060111
v 0.264667 0.751178 0.060112
v -0.254943 0.551688 0.060112
v -0.247581 0.742774 0.060112
v -0.218653 0.763436 0.060112
v -0.191280 0.815803 0.060111
v 0.224678 0.774743 0.060112
v 0.194924 0.821754 0.060112
v 0.179452 0.885427 0.060112
v 0.149103 0.941959 0.060112
v 0.089001 0.987780 0.060112
v 0.002120 1.006822 0.060111
v -0.051437 0.997896 0.060112
v -0.097258 0.975283 0.060111
v -0.139508 0.939579 0.060112
v -0.171047 0.887807 0.060112
v -0.103596 -0.001249 0.030112
v -0.081658 0.038724 0.030084
v -0.025318 0.018618 0.030112
v -0.065318 0.002514 0.030112
v -0.072861 0.083438 0.030112
v 0.013534 0.028408 0.030112
v -0.077015 0.142474 0.030112
v 0.118505 0.112010 0.030112
v -0.123629 0.224297 0.030112
v 0.188030 0.198783 0.030112
v -0.178178 0.304136 0.030112
v 0.244586 0.331604 0.030112
v -0.213882 0.412440 0.030112
v 0.264295 0.446430 0.030112
v -0.231140 0.506462 0.030112
v 0.301785 0.528550 0.030112
v 0.446151 0.745668 0.030112
v 0.463714 0.712608 0.030112
v 0.457860 0.669561 0.030112
v 0.403794 0.769774 0.030112
v -0.427688 0.700072 0.030112
v -0.415635 0.738641 0.030112
v -0.374999 0.758615 0.030112
v -0.417356 0.661502 0.030112
v -0.318177 0.749661 0.030112
v -0.377409 0.618455 0.030112
v -0.278230 0.738297 0.030112
v -0.317426 0.585607 0.030112
v 0.404138 0.617217 0.030112
v 0.362469 0.767363 0.030112
v 0.349986 0.580917 0.030112
v 0.312879 0.751866 0.030112
v 0.264667 0.751178 0.030112
v -0.247581 0.742774 0.030112
v -0.254943 0.551688 0.030112
v -0.218653 0.763436 0.030112
v -0.191280 0.815803 0.030112
v -0.171047 0.887807 0.030112
v -0.139508 0.939579 0.030112
v -0.097258 0.975283 0.030112
v -0.051437 0.997896 0.030112
v 0.002120 1.006822 0.030112
v 0.089001 0.987780 0.030112
v 0.149103 0.941959 0.030112
v 0.179452 0.885427 0.030112
v 0.194924 0.821754 0.030112
v 0.224678 0.774743 0.030112
v 0.050035 0.707438 0.064648
v 0.009639 0.755384 0.064648
v -0.030758 0.707438 0.064648
v -0.030758 0.611545 0.064648
v 0.009639 0.563599 0.064648
v 0.050035 0.611545 0.064648
v -0.065895 0.782870 0.064648
v -0.098189 0.801515 0.064648
v -0.130483 0.782870 0.064648
v -0.130483 0.745580 0.064648
v -0.098189 0.726935 0.064648
v -0.065895 0.745580 0.064648
v 0.143334 0.780728 0.064648
v 0.111040 0.799373 0.064648
v 0.078745 0.780728 0.064648
v 0.078745 0.743438 0.064648
v 0.111040 0.724792 0.064648
v 0.143334 0.743438 0.064648
v 0.050035 0.707438 0.034648
v 0.050035 0.611545 0.034648
v 0.009639 0.563599 0.034648
v -0.030758 0.611545 0.034648
v -0.030758 0.707438 0.034648
v 0.009639 0.755384 0.034648
v -0.065895 0.782870 0.034648
v -0.065895 0.745580 0.034648
v -0.098189 0.726935 0.034648
v -0.130483 0.745580 0.034648
v -0.130483 0.782870 0.034648
v -0.098189 0.801515 0.034648
v 0.143334 0.780728 0.034648
v 0.143334 0.743438 0.034648
v 0.111040 0.724792 0.034648
v 0.078745 0.743438 0.034648
v 0.078745 0.780728 0.034648
v 0.111040 0.799373 0.034648
vt 0.000000 0.000000
vt 0.000000 0.000000
vt 0.000000 0.000000
vt 0.000000 0.000000
vt 0.000000 0.000000
vt 0.000000 0.000000
vt 0.000000 0.000000
vt 0.000000 0.000000
vt 0.000000 0.000000
vt 0.000000 0.000000
vt 0.000000 0.000000
vt 0.000000 0.000000
vt 0.000000 0.000000
vt 0.000000 0.000000
vt 0.000000 0.000000
vt 0.000000 0.000000
vt 0.000000 0.000000
vt 0.000000 0.000000
vt 0.000000 0.000000
vt 0.000000 0.000000
vt 0.000000 0.000000
vt 0.000000 0.000000
vt 0.000000 0.000000
vt 0.000000 0.000000
vt 0.000000 0.000000
vt 0.000000 0.000000
vt 0.000000 0.000000
vt 0.000000 0.000000
vt 0.000000 0.000000
vt 0.000000 0.000000
vt 0.000000 0.000000
vt 0.000000 0.000000
vt 0.000000 0.000000
vt 0.000000 0.000000
vt 0.000000 0.000000
vt 0.000000 0.000000
vt 0.000000 0.000000
vt 0.000000 0.000000
vt 0.000000 0.000000
vt 0.000000 0.000000
vt 0.000000 0.000000
vt 0.000000 0.000000
vt 0.000000 0.000000
vt 0.000000 0.000000
vt 0.000000 0.000000
vt 0.000000 0.000000
vt 0.000000 0.000000
vt 0.000000 0.000000
vt 0.000000 0.000000
vt 0.000000 0.000000
vt 0.000000 0.000000
vt 0.000000 0.000000
vt 0.000000 0.000000
vt 0.000000 0.000000
vt 0.000000 0.000000
vt 0.000000 0.000000
vt 0.000000 0.000000
vt 0.000000 0.000000
vt 0.000000 0.000000
vt 0.000000 0.000000
vt 0.000000 0.000000
vt 0.000000 0.000000
vt 0.000000 0.000000
vt 0.000000 0.000000
vt 0.000000 0.000000
vt 0.000000 0.000000
vt 0.000000 0.000000
vt 0.000000 0.000000
vt 0.000000 0.000000
vt 0.000000 0.000000
vt 0.000000 0.000000
vt 0.000000 0.000000
vt 0.000000 0.000000
vt 0.000000 0.000000
vt 0.000000 0.000000
vt 0.000000 0.000000
vt 0.000000 0.000000
vt 0.000000 0.000000
vt 0.000000 0.000000
vt 0.000000 0.000000
vt 0.000000 0.000000
vt 0.000000 0.000000
vt 0.000000 0.000000
vt 0.000000 0.000000
vt 0.000000 0.000000
vt 0.000000 0.000000
vt 0.000000 0.000000
vt 0.000000 0.000000
vt 0.000000 0.000000
vt 0.000000 0.000000
vt 0.000000 0.000000
vt 0.000000 0.000000
vt 0.000000 0.000000
vt 0.000000 0.000000
vt 0.457846 0.370000
vt 0.250000 0.490000
vt 0.042154 0.370000
vt 0.042154 0.130000
vt 0.250000 0.010000
vt 0.457846 0.130000
vt 0.457846 0.370000
vt 0.250000 0.490000
vt 0.042154 0.370000
vt 0.042154 0.130000
vt 0.250000 0.010000
vt 0.457846 0.130000
vt 0.457846 0.370000
vt 0.250000 0.490000
vt 0.042154 0.370000
vt 0.042154 0.130000
vt 0.250000 0.010000
vt 0.457846 0.130000
vt 0.457846 0.370000
vt 0.457846 0.130000
vt 0.250000 0.010000
vt 0.042154 0.130000
vt 0.042154 0.370000
vt 0.250000 0.490000
vt 0.457846 0.370000
vt 0.457846 0.130000
vt 0.250000 0.010000
vt 0.042154 0.130000
vt 0.042154 0.370000
vt 0.250000 0.490000
vt 0.457846 0.370000
vt 0.457846 0.130000
vt 0.250000 0.010000
vt 0.042154 0.130000
vt 0.042154 0.370000
vt 0.250000 0.490000
vn -0.0002 0.0007 1.0000
vn -0.0002 0.0005 1.0000
vn -0.0003 0.0002 1.0000
vn -0.0001 -0.0001 1.0000
vn -0.0000 -0.0000 1.0000
vn 0.0002 -0.0007 -1.0000
vn 0.0002 -0.0002 -1.0000
vn 0.0002 -0.0004 -1.0000
vn 0.0001 0.0001 -1.0000
vn 0.0000 0.0000 -1.0000
vn -0.8766 0.4812 -0.0004
vn 0.2443 -0.9697 0.0000
vn 0.6230 -0.7822 0.0000
vn -0.9975 -0.0702 -0.0001
vn -0.8689 -0.4950 0.0000
vn -0.8257 -0.5641 -0.0000
vn -0.9497 -0.3131 0.0000
vn -0.9836 -0.1805 0.0000
vn -0.8849 -0.4657 0.0000
vn -0.4771 -0.8789 0.0000
vn -0.4787 -0.8780 0.0000
vn -0.4803 -0.8771 0.0000
vn -0.7330 -0.6802 0.0000
vn -0.9659 -0.2588 0.0000
vn -0.9545 0.2983 0.0000
vn -0.4411 0.8974 0.0000
vn 0.1557 0.9878 0.0000
vn 0.2736 0.9618 0.0000
vn -0.1445 0.9895 0.0000
vn -0.5812 0.8137 0.0000
vn -0.8862 0.4632 0.0000
vn -0.9627 0.2705 0.0000
vn -0.8540 0.5203 0.0000
vn -0.6455 0.7638 0.0000
vn -0.4425 0.8967 0.0000
vn -0.1644 0.9864 0.0000
vn 0.2141 0.9768 0.0000
vn 0.6063 0.7952 0.0000
vn 0.8811 0.4730 0.0000
vn 0.9717 0.2361 0.0000
vn 0.8450 0.5348 0.0000
vn 0.5077 0.8615 0.0000
vn -0.0143 0.9999 0.0000
vn -0.2983 0.9545 0.0000
vn -0.0582 0.9983 0.0000
vn 0.4946 0.8691 0.0000
vn 0.8831 0.4692 0.0000
vn 0.9909 -0.1348 0.0000
vn 0.6979 -0.7162 0.0000
vn 0.5568 -0.8306 0.0000
vn 0.7358 -0.6772 0.0000
vn 0.9097 -0.4153 0.0000
vn 0.9856 -0.1692 0.0000
vn 0.9201 -0.3918 0.0000
vn 0.7804 -0.6253 0.0000
vn 0.0978 -0.9952 0.0007
vn 0.3733 -0.9277 0.0004
vn -0.9812 0.1931 -0.0002
vn 0.7648 0.6443 0.0000
vn 1.0000 -0.0000 0.0000
vn 0.7648 -0.6443 0.0000
vn -0.7647 -0.6443 0.0000
vn -1.0000 0.0000 0.0000
vn -0.7647 0.6443 0.0000
vn 0.5000 0.8660 0.0000
vn 0.5000 -0.8660 0.0000
vn -0.5000 -0.8660 0.0000
vn -0.5000 0.8660 0.0000
usemtl White
s 1
f 1/1/1 2/2/1 3/3/2 4/4/3
f 3/3/2 5/5/4 6/6/4 4/4/3
f 5/5/4 7/7/5 8/8/5 6/6/4
f 9/9/5 8/8/5 7/7/5 10/10/5
f 11/11/5 9/9/5 10/10/5 12/12/5
f 13/13/5 11/11/5 12/12/5 14/14/5
f 15/15/5 13/13/5 14/14/5 16/16/5
f 17/17/5 18/18/5 19/19/5 20/20/5
f 21/21/5 22/22/5 23/23/5 24/24/5
f 22/22/5 25/25/5 26/26/5 23/23/5
f 25/25/5 27/27/5 28/28/5 26/26/5
f 18/18/5 29/29/5 30/30/5 19/19/5
f 29/29/5 31/31/5 32/32/5 30/30/5
f 31/31/5 33/33/5 16/16/5 32/32/5
f 27/27/5 34/34/5 35/35/5 28/28/5
f 34/34/5 15/15/5 36/36/5 35/35/5
f 15/15/5 16/16/5 33/33/5 36/36/5
f 37/37/5 36/36/5 33/33/5 38/38/5 39/39/5 40/40/5 41/41/5 42/42/5 43/43/5 44/44/5 45/45/5 46/46/5 47/47/5
f 48/48/6 49/49/7 50/50/8 51/51/6
f 50/50/8 49/49/7 52/52/9 53/53/9
f 53/53/9 52/52/9 54/54/10 55/55/10
f 56/56/10 57/57/10 55/55/10 54/54/10
f 58/58/10 59/59/10 57/57/10 56/56/10
f 60/60/10 61/61/10 59/59/10 58/58/10
f 62/62/10 63/63/10 61/61/10 60/60/10
f 64/64/10 65/65/10 66/66/10 67/67/10
f 68/68/10 69/69/10 70/70/10 71/71/10
f 71/71/10 70/70/10 72/72/10 73/73/10
f 73/73/10 72/72/10 74/74/10 75/75/10
f 67/67/10 66/66/10 76/76/10 77/77/10
f 77/77/10 76/76/10 78/78/10 79/79/10
f 79/79/10 78/78/10 63/63/10 80/80/10
f 75/75/10 74/74/10 81/81/10 82/82/10
f 82/82/10 81/81/10 83/83/10 62/62/10
f 62/62/10 83/83/10 80/80/10 63/63/10
f 84/84/10 85/85/10 86/86/10 87/87/10 88/88/10 89/89/10 90/90/10 91/91/10 92/92/10 93/93/10 94/94/10 80/80/10 83/83/10
f 1/1/11 4/4/11 49/49/11 48/48/11
f 5/5/12 3/3/12 50/50/12 53/53/12
f 7/7/13 5/5/13 53/53/13 55/55/13
f 6/6/14 8/8/14 54/54/14 52/52/14
f 8/8/15 9/9/15 56/56/15 54/54/15
f 9/9/16 11/11/16 58/58/16 56/56/16
f 11/11/17 13/13/17 60/60/17 58/58/17
f 13/13/18 15/15/18 62/62/18 60/60/18
f 15/15/19 34/34/19 82/82/19 62/62/19
f 34/34/20 27/27/21 75/75/21 82/82/20
f 27/27/21 25/25/22 73/73/22 75/75/21
f 25/25/23 22/22/23 71/71/23 73/73/23
f 22/22/24 21/21/24 68/68/24 71/71/24
f 21/21/25 24/24/25 69/69/25 68/68/25
f 24/24/26 23/23/26 70/70/26 69/69/26
f 23/23/27 26/26/27 72/72/27 70/70/27
f 26/26/28 28/28/28 74/74/28 72/72/28
f 28/28/29 35/35/29 81/81/29 74/74/29
f 35/35/30 36/36/30 83/83/30 81/81/30
f 36/36/31 37/37/31 84/84/31 83/83/31
f 37/37/32 47/47/32 85/85/32 84/84/32
f 47/47/33 46/46/33 86/86/33 85/85/33
f 46/46/34 45/45/34 87/87/34 86/86/34
f 45/45/35 44/44/35 88/88/35 87/87/35
f 44/44/36 43/43/36 89/89/36 88/88/36
f 43/43/37 42/42/37 90/90/37 89/89/37
f 42/42/38 41/41/38 91/91/38 90/90/38
f 41/41/39 40/40/39 92/92/39 91/91/39
f 40/40/40 39/39/40 93/93/40 92/92/40
f 39/39/41 38/38/41 94/94/41 93/93/41
f 38/38/42 33/33/42 80/80/42 94/94/42
f 33/33/43 31/31/43 79/79/43 80/80/43
f 31/31/44 29/29/44 77/77/44 79/79/44
f 29/29/45 18/18/45 67/67/45 77/77/45
f 18/18/46 17/17/46 64/64/46 67/67/46
f 17/17/47 20/20/47 65/65/47 64/64/47
f 20/20/48 19/19/48 66/66/48 65/65/48
f 19/19/49 30/30/49 76/76/49 66/66/49
f 30/30/50 32/32/50 78/78/50 76/76/50
f 32/32/51 16/16/51 63/63/51 78/78/51
f 16/16/52 14/14/52 61/61/52 63/63/52
f 14/14/53 12/12/53 59/59/53 61/61/53
f 12/12/54 10/10/54 57/57/54 59/59/54
f 10/10/55 7/7/55 55/55/55 57/57/55
f 2/2/56 1/1/56 48/48/56 51/51/56
f 3/3/57 2/2/57 51/51/57 50/50/57
f 4/4/58 6/6/58 52/52/58 49/49/58
usemtl Black
f 95/95/5 96/96/5 97/97/5 98/98/5 99/99/5 100/100/5
f 101/101/5 102/102/5 103/103/5 104/104/5 105/105/5 106/106/5
f 107/107/5 108/108/5 109/109/5 110/110/5 111/111/5 112/112/5
f 113/113/10 114/114/10 115/115/10 116/116/10 117/117/10 118/118/10
f 119/119/10 120/120/10 121/121/10 122/122/10 123/123/10 124/124/10
f 125/125/10 126/126/10 127/127/10 128/128/10 129/129/10 130/130/10
f 96/96/59 95/95/59 113/113/59 118/118/59
f 95/95/60 100/100/60 114/114/60 113/113/60
f 100/100/61 99/99/61 115/115/61 114/114/61
f 99/99/62 98/98/62 116/116/62 115/115/62
f 98/98/63 97/97/63 117/117/63 116/116/63
f 97/97/64 96/96/64 118/118/64 117/117/64
f 102/102/65 101/101/65 119/119/65 124/124/65
f 101/101/60 106/106/60 120/120/60 119/119/60
f 106/106/66 105/105/66 121/121/66 120/120/66
f 105/105/67 104/104/67 122/122/67 121/121/67
f 104/104/63 103/103/63 123/123/63 122/122/63
f 103/103/68 102/102/68 124/124/68 123/123/68
f 108/108/65 107/107/65 125/125/65 130/130/65
f 107/107/60 112/112/60 126/126/60 125/125/60
f 112/112/66 111/111/66 127/127/66 126/126/66
f 111/111/67 110/110/67 128/128/67 127/127/67
f 110/110/63 109/109/63 129/129/63 128/128/63
f 109/109/68 108/108/68 130/130/68 129/129/68
