# Blender v2.90.1 OBJ File: ''
# www.blender.org
mtllib piramide.mtl
o Cone
v 0.000000 0.000000 -1.000000
v 1.000000 0.000000 0.000000
v -0.000000 0.000000 1.000000
v -1.000000 0.000000 -0.000000
v 0.000000 1.000000 0.000000
vt 0.985135 0.057913
vt 0.521622 0.932500
vt 0.987508 0.052500
vt 0.045946 0.039587
vt 0.144595 0.825606
vt 0.212700 0.757500
vt 0.144595 0.689394
vt 0.076489 0.757500
vt 0.986816 0.045000
vt 0.045281 0.048150
vn 0.5774 0.5774 -0.5774
vn 0.5774 0.5774 0.5774
vn 0.0000 -1.0000 0.0000
vn -0.5774 0.5774 0.5774
vn -0.5774 0.5774 -0.5774
usemtl Material.001
s off
f 1/1/1 5/2/1 2/3/1
f 2/3/2 5/2/2 3/4/2
f 1/5/3 2/6/3 3/7/3 4/8/3
f 3/4/4 5/2/4 4/9/4
f 4/10/5 5/2/5 1/1/5
